<?xml version="1.0" encoding="utf-8"?>
<!-- Generator: Adobe Illustrator 27.5.0, SVG Export Plug-In . SVG Version: 6.00 Build 0)  -->
<svg version="1.1" id="Layer_1" xmlns="http://www.w3.org/2000/svg" xmlns:xlink="http://www.w3.org/1999/xlink" x="0px" y="0px"
	 viewBox="0 0 841.89 595.28" style="enable-background:new 0 0 841.89 595.28;" xml:space="preserve">
<style type="text/css">
	.st0{fill:#B82025;stroke:#000000;stroke-miterlimit:10;}
	.st1{fill:none;}
	.st2{fill:#FFFFFF;}
	.st3{font-family:'Georgia';}
	.st4{font-size:30.6331px;}
	.st5{opacity:0.1;}
	.st6{fill:#F9EC53;stroke:#FBB040;stroke-miterlimit:10;}
	.st7{fill:#DFBE2E;stroke:#FBB040;stroke-miterlimit:10;}
	.st8{fill:#BC9930;stroke:#FBB040;stroke-miterlimit:10;}
	.st9{fill:#A98A30;stroke:#FBB040;stroke-miterlimit:10;}
	.st10{fill:#D8B034;stroke:#FBB040;stroke-miterlimit:10;}
	.st11{fill:#DBBA2E;stroke:#FBB040;stroke-miterlimit:10;}
	.st12{fill:#765B24;stroke:#FBB040;stroke-miterlimit:10;}
	.st13{fill:#A8882F;stroke:#FBB040;stroke-miterlimit:10;}
	.st14{fill:#D3B02D;stroke:#FBB040;stroke-miterlimit:10;}
	.st15{fill:#BE992F;stroke:#FBB040;stroke-miterlimit:10;}
	.st16{fill:#A3832E;stroke:#FBB040;stroke-miterlimit:10;}
	.st17{fill:#D7B229;stroke:#FBB040;stroke-miterlimit:10;}
	.st18{fill:#CDAB32;stroke:#FBB040;stroke-miterlimit:10;}
	.st19{opacity:0.2;}
	.st20{font-size:28px;}
</style>
<g>
	<g>
		<rect x="136.52" y="127.7" class="st0" width="568" height="340.33"/>
	</g>
	<rect x="216.51" y="177.5" class="st1" width="342.19" height="77.61"/>
	<text transform="matrix(1 0 0 1 216.5151 200.6623)"><tspan x="0" y="0" class="st2 st3 st4">“What would you do if </tspan><tspan x="0" y="36.76" class="st2 st3 st4">you weren’t afraid?”</tspan></text>
	<g class="st5">
		<g>
			<g>
				<polygon class="st6" points="328.51,230.83 525.96,386.67 459.66,394.52 224.62,231.41 				"/>
			</g>
			<polygon class="st6" points="224.62,231.41 176.07,409.42 459.66,394.52 			"/>
		</g>
		<circle class="st7" cx="226.35" cy="352.47" r="7.85"/>
		<circle class="st8" cx="258.85" cy="299.47" r="15.69"/>
		<circle class="st9" cx="269.44" cy="335.31" r="11.21"/>
		<circle class="st10" cx="313.35" cy="361.72" r="8.59"/>
		<circle class="st11" cx="366.93" cy="363.35" r="14.01"/>
		<circle class="st12" cx="308.54" cy="330.01" r="5.23"/>
		<circle class="st13" cx="388.93" cy="302.36" r="3.32"/>
		<circle class="st14" cx="269.04" cy="247.5" r="2.49"/>
		<circle class="st15" cx="311.78" cy="262.31" r="12.57"/>
		<circle class="st16" cx="361.11" cy="277.3" r="12.57"/>
		<circle class="st17" cx="405.53" cy="322.37" r="11.01"/>
		<circle class="st18" cx="478.36" cy="366.07" r="9.63"/>
		<circle class="st17" cx="446.04" cy="347.16" r="8.78"/>
	</g>
	<g class="st19">
		<g>
			<g>
				<polygon class="st6" points="587.03,185.45 675.4,420.96 614.59,393.38 497.82,132.21 				"/>
			</g>
			<polygon class="st6" points="497.82,132.21 364.18,259.44 614.59,393.38 			"/>
		</g>
		<circle class="st7" cx="436.68" cy="236.7" r="7.85"/>
		<circle class="st8" cx="491.9" cy="208.16" r="15.69"/>
		<circle class="st9" cx="482.43" cy="244.31" r="11.21"/>
		<circle class="st10" cx="506.35" cy="289.62" r="8.59"/>
		<circle class="st11" cx="551.36" cy="318.74" r="14.01"/>
		<circle class="st12" cx="518.63" cy="259.99" r="5.23"/>
		<circle class="st13" cx="601.74" cy="277.92" r="3.32"/>
		<circle class="st14" cx="527.51" cy="168.95" r="2.49"/>
		<circle class="st15" cx="556.43" cy="203.74" r="12.57"/>
		<circle class="st16" cx="590.9" cy="242.08" r="12.57"/>
		<circle class="st17" cx="605.59" cy="303.64" r="11.01"/>
		<circle class="st18" cx="645.32" cy="378.71" r="9.63"/>
		<circle class="st17" cx="627.44" cy="345.81" r="8.78"/>
	</g>
	<g>
		<g>
			<g>
				<polygon class="st6" points="172.9,351.02 236.48,415.54 236.68,391.5 169.01,313.81 				"/>
			</g>
			<polygon class="st6" points="169.01,313.81 230.81,289.4 236.68,391.5 			"/>
		</g>
		<circle class="st7" cx="212.41" cy="309.65" r="2.83"/>
		<circle class="st8" cx="194.72" cy="323.37" r="5.65"/>
		<circle class="st9" cx="207.97" cy="325.75" r="4.04"/>
		<circle class="st10" cx="219.15" cy="340.42" r="3.09"/>
		<circle class="st11" cx="221.85" cy="359.54" r="5.05"/>
		<circle class="st12" cx="207.61" cy="339.95" r="1.88"/>
		<circle class="st13" cx="200.89" cy="369.82" r="1.2"/>
		<circle class="st14" cx="176.52" cy="329.07" r="0.9"/>
		<circle class="st15" cx="183.51" cy="343.79" r="4.53"/>
		<circle class="st16" cx="190.82" cy="360.85" r="4.53"/>
		<circle class="st17" cx="208.71" cy="374.97" r="3.96"/>
		<circle class="st18" cx="227.23" cy="399.32" r="3.47"/>
		<circle class="st17" cx="219.18" cy="388.49" r="3.16"/>
	</g>
	<rect x="283.29" y="318.05" class="st1" width="395.74" height="77.61"/>
	<text transform="matrix(1 0 0 1 283.2935 341.2101)"><tspan x="0" y="0" class="st2 st3 st4">“</tspan><tspan x="12.56" y="0" class="st2 st3 st20">What you are afraid of is never </tspan><tspan x="0" y="36.76" class="st2 st3 st20">as bad as what you imagine</tspan><tspan x="337.27" y="36.76" class="st2 st3 st4">”</tspan></text>
</g>
</svg>
